<svg xmlns="http://www.w3.org/2000/svg" viewBox="0 0 500 500"><g id="background-complete"><rect x="415.8" y="399.21" width="33.12" height="0.25" style="fill:#ebebeb"></rect><rect x="321.55" y="401.92" width="8.69" height="0.25" style="fill:#ebebeb"></rect><rect x="395.61" y="389.92" width="19.19" height="0.25" style="fill:#ebebeb"></rect><rect x="51.48" y="391.6" width="43.19" height="0.25" style="fill:#ebebeb"></rect><rect x="103.58" y="391.6" width="6.33" height="0.25" style="fill:#ebebeb"></rect><rect x="130.49" y="395.82" width="93.68" height="0.25" style="fill:#ebebeb"></rect><path d="M236,338.51H42.94a5.71,5.71,0,0,1-5.71-5.71V61.37a5.71,5.71,0,0,1,5.71-5.7H236a5.71,5.71,0,0,1,5.71,5.7V332.8A5.71,5.71,0,0,1,236,338.51ZM42.94,55.92a5.46,5.46,0,0,0-5.46,5.45V332.8a5.47,5.47,0,0,0,5.46,5.46H236a5.47,5.47,0,0,0,5.46-5.46V61.37A5.46,5.46,0,0,0,236,55.92Z" style="fill:#ebebeb"></path><path d="M452.33,338.51H259.23a5.71,5.71,0,0,1-5.7-5.71V61.37a5.71,5.71,0,0,1,5.7-5.7h193.1a5.71,5.71,0,0,1,5.71,5.7V332.8A5.71,5.71,0,0,1,452.33,338.51ZM259.23,55.92a5.45,5.45,0,0,0-5.45,5.45V332.8a5.46,5.46,0,0,0,5.45,5.46h193.1a5.47,5.47,0,0,0,5.46-5.46V61.37a5.46,5.46,0,0,0-5.46-5.45Z" style="fill:#ebebeb"></path><rect x="-0.98" y="383.11" width="500" height="0.25" style="fill:#ebebeb"></rect><rect x="134.22" y="84.15" width="69.61" height="236.14" style="fill:#fafafa"></rect><rect x="118.57" y="167.74" width="87.03" height="150.49" style="fill:#e0e0e0"></rect><polygon points="135.28 146.71 135.28 184.46 142.15 184.46 182.03 184.46 188.89 184.46 188.89 146.71 135.28 146.71" style="fill:#e0e0e0"></polygon><rect x="124.14" y="173.31" width="11.14" height="11.14" style="fill:#fafafa"></rect><rect x="145.72" y="173.31" width="11.14" height="11.14" style="fill:#fafafa"></rect><rect x="167.31" y="173.31" width="11.14" height="11.14" style="fill:#fafafa"></rect><rect x="188.89" y="173.31" width="11.14" height="11.14" style="fill:#f0f0f0"></rect><rect x="124.14" y="193.56" width="11.14" height="11.14" style="fill:#f0f0f0"></rect><rect x="145.72" y="193.56" width="11.14" height="11.14" style="fill:#f0f0f0"></rect><rect x="167.31" y="193.56" width="11.14" height="11.14" style="fill:#fafafa"></rect><rect x="188.89" y="193.56" width="11.14" height="11.14" style="fill:#fafafa"></rect><rect x="124.14" y="213.8" width="11.14" height="11.14" style="fill:#f0f0f0"></rect><rect x="145.72" y="213.8" width="11.14" height="11.14" style="fill:#fafafa"></rect><rect x="167.31" y="213.8" width="11.14" height="11.14" style="fill:#fafafa"></rect><rect x="145.72" y="155.81" width="11.14" height="11.14" style="fill:#fafafa"></rect><rect x="167.31" y="155.81" width="11.14" height="11.14" style="fill:#f0f0f0"></rect><rect x="188.89" y="213.8" width="11.14" height="11.14" style="fill:#f0f0f0"></rect><rect x="124.14" y="234.05" width="11.14" height="11.14" style="fill:#fafafa"></rect><rect x="145.72" y="234.05" width="11.14" height="11.14" style="fill:#f0f0f0"></rect><rect x="167.31" y="234.05" width="11.14" height="11.14" style="fill:#f0f0f0"></rect><rect x="188.89" y="234.05" width="11.14" height="11.14" style="fill:#fafafa"></rect><rect x="124.14" y="254.29" width="11.14" height="11.14" style="fill:#f0f0f0"></rect><rect x="145.72" y="254.29" width="11.14" height="11.14" style="fill:#fafafa"></rect><rect x="167.31" y="254.29" width="11.14" height="11.14" style="fill:#fafafa"></rect><rect x="188.89" y="254.29" width="11.14" height="11.14" style="fill:#f0f0f0"></rect><rect x="124.14" y="274.54" width="11.14" height="11.14" style="fill:#f0f0f0"></rect><rect x="145.72" y="274.54" width="11.14" height="11.14" style="fill:#fafafa"></rect><rect x="167.31" y="274.54" width="11.14" height="11.14" style="fill:#f0f0f0"></rect><rect x="188.89" y="274.54" width="11.14" height="11.14" style="fill:#fafafa"></rect><rect x="124.14" y="294.78" width="11.14" height="11.14" style="fill:#fafafa"></rect><rect x="145.72" y="294.78" width="11.14" height="11.14" style="fill:#fafafa"></rect><rect x="167.31" y="294.78" width="11.14" height="11.14" style="fill:#f0f0f0"></rect><rect x="188.89" y="294.78" width="11.14" height="11.14" style="fill:#f0f0f0"></rect><rect x="134.08" y="84.15" width="69.61" height="236.14" style="fill:#fff;opacity:0.1"></rect><g style="opacity:0.30000000000000004"><polygon points="196.88 84.15 174.69 84.15 150.41 320.3 172.6 320.3 196.88 84.15" style="fill:#fff"></polygon></g><rect x="133.63" y="81.16" width="70.78" height="5.99" style="fill:#e0e0e0"></rect><rect x="133.63" y="318.23" width="70.78" height="5.99" style="fill:#ebebeb"></rect><path d="M207.16,329.33H130.43v-254h76.73Zm-70.88-5.85h65V81.16h-65Z" style="fill:#ebebeb"></path><rect x="58.29" y="84.15" width="69.61" height="236.14" style="fill:#fafafa"></rect><rect x="63.11" y="246" width="59.53" height="73.05" style="fill:#e6e6e6"></rect><polygon points="117.45 254.1 103.6 254.1 99.79 254.1 95.98 254.1 95.98 261.72 99.79 261.72 103.6 261.72 117.45 261.72 117.45 254.1" style="fill:#e6e6e6"></polygon><polygon points="117.45 268.87 103.6 268.87 99.79 268.87 95.98 268.87 95.98 276.49 99.79 276.49 103.6 276.49 117.45 276.49 117.45 268.87" style="fill:#fafafa"></polygon><polygon points="117.45 283.63 103.6 283.63 99.79 283.63 95.98 283.63 95.98 291.25 99.79 291.25 103.6 291.25 117.45 291.25 117.45 283.63" style="fill:#e6e6e6"></polygon><polygon points="117.45 298.39 103.6 298.39 97.72 298.39 95.98 298.39 95.98 306.01 97.72 306.01 103.6 306.01 117.45 306.01 117.45 298.39" style="fill:#fafafa"></polygon><polygon points="89.76 254.1 75.91 254.1 72.1 254.1 68.29 254.1 68.29 261.72 72.1 261.72 75.91 261.72 89.76 261.72 89.76 254.1" style="fill:#fafafa"></polygon><polygon points="89.76 268.87 75.91 268.87 70.54 268.87 68.29 268.87 68.29 276.49 70.54 276.49 75.91 276.49 89.76 276.49 89.76 268.87" style="fill:#fafafa"></polygon><polygon points="89.76 283.63 75.91 283.63 72.1 283.63 68.29 283.63 68.29 291.25 72.1 291.25 75.91 291.25 89.76 291.25 89.76 283.63" style="fill:#e6e6e6"></polygon><polygon points="89.76 298.39 75.91 298.39 72.1 298.39 68.29 298.39 68.29 306.01 72.1 306.01 75.91 306.01 89.76 306.01 89.76 298.39" style="fill:#fafafa"></polygon><rect x="58.06" y="84.15" width="69.61" height="236.14" style="fill:#fff;opacity:0.1"></rect><g style="opacity:0.30000000000000004"><polygon points="120.95 84.15 98.76 84.15 74.48 320.3 96.67 320.3 120.95 84.15" style="fill:#fff"></polygon></g><rect x="57.71" y="81.16" width="70.78" height="5.99" style="fill:#e0e0e0"></rect><rect x="57.71" y="318.23" width="70.78" height="5.99" style="fill:#ebebeb"></rect><path d="M131.24,329.33H54.5v-254h76.74Zm-70.89-5.85h65V81.16h-65Z" style="fill:#ebebeb"></path><path d="M161.09,339.3a4.51,4.51,0,0,1,4.8-2.4,4.78,4.78,0,0,1,3.58,4.15,4,4,0,0,1,4.55-.12,4.53,4.53,0,0,1,1.84,4.41,3.35,3.35,0,0,1,4.87,1,3.78,3.78,0,0,1-1.49,5,2.41,2.41,0,0,1-.12,4.8,2.61,2.61,0,0,1,2.4,2.29,2.7,2.7,0,0,1-1.81,2.84,2.19,2.19,0,0,1,.52,3.39,2,2,0,0,1-3.11-1,.64.64,0,0,1-1,.16.72.72,0,0,1,.2-1.07,1.2,1.2,0,0,1-2.06-.53c.4,2.16-2.17,4.19-4,3.17a1.81,1.81,0,0,1-1.19,2.44,4.14,4.14,0,0,1-2.9-.57,6.53,6.53,0,0,0-2.85-1,8.93,8.93,0,0,0-2.54.71,7.65,7.65,0,0,1-7.76-2,3.31,3.31,0,0,1-5.54-.84,2.47,2.47,0,0,1-2.17,2,2.44,2.44,0,0,1-2.37-1.7c0,.47,0,.94-.07,1.41-1.93.46-3.83-2-3-3.93a3,3,0,0,1-2.86-2.61,3.1,3.1,0,0,1,2.14-3.3,5.83,5.83,0,0,1-.12-11.05,2.8,2.8,0,0,1,2.65.36,1.68,1.68,0,0,1,0,2.52,5.36,5.36,0,0,1,2.28-6,4.78,4.78,0,0,1,6,1.28,3,3,0,0,1,0-3.32,2.61,2.61,0,0,1,3-1,3,3,0,0,1,3.25-2.46,3.13,3.13,0,0,1,2.44,3.34,1.52,1.52,0,0,1,2.75-.52C162.15,338.88,161.09,339.3,161.09,339.3Z" style="fill:#ebebeb"></path><path d="M160.55,353.68a2.77,2.77,0,0,1,2.06-.5,1.93,1.93,0,0,1,1.5,1.41,1.47,1.47,0,0,1-1,1.69c-.86.21-1.72-.5-2.59-.37a7.84,7.84,0,0,0-.91.27c-1.25.33-2.5-.49-3.54-1.26a4,4,0,0,1-1-.94,1.3,1.3,0,0,1-.1-1.3,1.68,1.68,0,0,1,1.71-.56,6.71,6.71,0,0,1,3.49,1.46l-.09-.6Z" style="fill:#fafafa"></path><path d="M142.3,352.6a3.38,3.38,0,0,1,1.09-.58,1,1,0,0,1,.82,1.83,3.25,3.25,0,0,1-1.6.54c-.58.09-1.31.11-1.59-.4a1,1,0,0,1,.27-1.15,2.79,2.79,0,0,1,1.14-.57Z" style="fill:#fafafa"></path><path d="M171.13,343.11a4,4,0,0,1,2.33,2.79c.08.37.07.84-.25,1a1,1,0,0,1-.79,0l-3.34-.79a4.81,4.81,0,0,1,1.5.8,1.61,1.61,0,0,1,.58,1.53,1.56,1.56,0,0,1-1.55,1,3.34,3.34,0,0,1-1.84-.74,2.3,2.3,0,0,1-1.16-1.71c0-.71.89-1.38,1.44-.92a12.14,12.14,0,0,1-3.59-1.63,3.45,3.45,0,0,1-1-1,1.4,1.4,0,0,1-.1-1.37c1.14-2.07,2.58,1,3.28,1.24C167.94,344,169.44,342.4,171.13,343.11Z" style="fill:#fafafa"></path><path d="M176.32,352a1.1,1.1,0,0,1-.29,1.16.71.71,0,0,1-1.07-.22,3.77,3.77,0,0,1,2,1.13c.47.63.35,1.73-.39,2a1.82,1.82,0,0,1-1.39-.31,25.35,25.35,0,0,1-3.45-2.27c.33.76-.47,1.63-1.3,1.7a4.05,4.05,0,0,1-2.32-.81c-.87-.53-1.87-1.34-1.64-2.34a1.7,1.7,0,0,1,2.16-1,5,5,0,0,1,2.09,1.61c-.47-.69.2-1.7,1-1.81a2.48,2.48,0,0,1,2.09,1c-.93-.51-1.14-1.83.11-2C174.76,349.64,176.13,351.29,176.32,352Z" style="fill:#fafafa"></path><path d="M150.82,349a1.35,1.35,0,1,1,.68,2.59,2.1,2.1,0,0,1,1.41.73,1.08,1.08,0,0,1,.3.84,1,1,0,0,1-1,.76,3.06,3.06,0,0,1-1.3-.36,2.34,2.34,0,0,1,1.28.37.82.82,0,0,1,.19,1.17,1.06,1.06,0,0,1-1.07.12,5.24,5.24,0,0,1-2.19-1.23,2.12,2.12,0,0,1-1.83.77,1.26,1.26,0,0,1-1-1.49,1.35,1.35,0,0,1,1.14-.83,3.45,3.45,0,0,1,1.45.23,2.78,2.78,0,0,1-1.17-1.28c-.17-.57.21-1.32.79-1.28s1,1,1.52,1.28C150.62,350.76,149.41,349.51,150.82,349Z" style="fill:#fafafa"></path><path d="M162.73,346.23a2.71,2.71,0,0,1,1,2.42,2.79,2.79,0,0,1-1.43,2.47,2.28,2.28,0,0,1-2.94-1.77,3.23,3.23,0,0,1,1.8-3.23A1.76,1.76,0,0,1,162.73,346.23Z" style="fill:#fafafa"></path><path d="M154.3,345.15l-.31.27a1.5,1.5,0,1,1,0,1.88,2.26,2.26,0,0,1-2.63-.5,1.71,1.71,0,0,1,.36-2.5,1.4,1.4,0,0,1,2,1.19l.36-.4Z" style="fill:#fafafa"></path><path d="M145,346.66a4.78,4.78,0,0,1,1.43,2,1.64,1.64,0,0,1-.95,2c-.81.21-1.57-.46-2-1.15a2.52,2.52,0,0,1-.5-2.12c.24-.71,1.27-1.13,1.78-.58Z" style="fill:#fafafa"></path><path d="M158.4,341.77a1.37,1.37,0,0,1,1.9-.52,1.66,1.66,0,0,1,.59,2,2.14,2.14,0,0,1-1.72,1.24c-.92.1-2-.64-1.8-1.54a1.93,1.93,0,0,1-1.75.66,4.68,4.68,0,0,1-1.82-.68c-.76-.45-1.58-1.13-1.5-2a1.57,1.57,0,0,1,1.44-1.31,2.67,2.67,0,0,1,1.94.72,16.33,16.33,0,0,0,1.23,1.12,1.53,1.53,0,0,0,1.56.22Z" style="fill:#fafafa"></path><polygon points="146.94 382.73 170.01 382.73 172.27 359.48 144.69 359.48 146.94 382.73" style="fill:#ebebeb"></polygon><polygon points="142.9 360.68 174.29 360.68 174.85 357.59 142.34 357.59 142.9 360.68" style="fill:#f5f5f5"></polygon><rect x="276.27" y="106.88" width="164.01" height="73.62" rx="19.67" style="fill:#e0e0e0"></rect><rect x="267.63" y="107.42" width="164.01" height="73.62" rx="19.67" style="fill:#ebebeb"></rect><path d="M289.85,114.36H410.39a13.74,13.74,0,0,1,13.74,13.74v13.73a0,0,0,0,1,0,0h-148a0,0,0,0,1,0,0V128.1A13.74,13.74,0,0,1,289.85,114.36Z" style="fill:#e0e0e0"></path><path d="M276.11,145.54h148a0,0,0,0,1,0,0v13.73A13.74,13.74,0,0,1,410.39,173H289.85a13.74,13.74,0,0,1-13.74-13.74V145.54A0,0,0,0,1,276.11,145.54Z" style="fill:#e0e0e0"></path><rect x="363.84" y="119.68" width="20.98" height="22.33" style="fill:#e6e6e6"></rect><rect x="358.46" y="119.68" width="5.37" height="22.33" style="fill:#f5f5f5"></rect><rect x="374.56" y="116.23" width="15.76" height="25.77" style="fill:#e6e6e6"></rect><rect x="370.01" y="116.23" width="4.56" height="25.77" style="fill:#f5f5f5"></rect><rect x="379.2" y="119.68" width="13.29" height="22.33" style="fill:#ebebeb"></rect><rect x="376.16" y="119.68" width="3.03" height="22.33" style="fill:#f5f5f5"></rect><rect x="390.07" y="123.46" width="17.43" height="18.55" style="fill:#e6e6e6"></rect><rect x="385.61" y="123.46" width="4.46" height="18.55" style="fill:#f5f5f5"></rect><rect x="398.98" y="120.6" width="13.09" height="21.41" style="fill:#e6e6e6"></rect><rect x="395.2" y="120.6" width="3.79" height="21.41" style="fill:#f5f5f5"></rect><rect x="402.84" y="123.46" width="12.72" height="18.55" style="fill:#e6e6e6"></rect><rect x="400.31" y="123.46" width="2.52" height="18.55" style="fill:#f0f0f0"></rect><rect x="298.56" y="149.83" width="20.98" height="22.33" style="fill:#e6e6e6"></rect><rect x="293.18" y="149.83" width="5.37" height="22.33" style="fill:#f5f5f5"></rect><rect x="309.28" y="146.39" width="15.76" height="25.77" style="fill:#e6e6e6"></rect><rect x="304.73" y="146.39" width="4.56" height="25.77" style="fill:#f5f5f5"></rect><rect x="370.12" y="149.83" width="20.98" height="22.33" style="fill:#e6e6e6"></rect><rect x="364.75" y="149.83" width="5.37" height="22.33" style="fill:#f5f5f5"></rect><rect x="380.84" y="146.39" width="15.76" height="25.77" style="fill:#e6e6e6"></rect><rect x="376.29" y="146.39" width="4.56" height="25.77" style="fill:#f5f5f5"></rect><rect x="313.92" y="149.83" width="13.29" height="22.33" style="fill:#ebebeb"></rect><rect x="310.88" y="149.83" width="3.04" height="22.33" style="fill:#f5f5f5"></rect><rect x="324.79" y="153.61" width="17.43" height="18.55" style="fill:#e6e6e6"></rect><rect x="320.33" y="153.61" width="4.46" height="18.55" style="fill:#f5f5f5"></rect><rect x="333.7" y="150.75" width="13.09" height="21.41" style="fill:#e6e6e6"></rect><rect x="329.92" y="150.75" width="3.79" height="21.41" style="fill:#f5f5f5"></rect><rect x="337.56" y="153.61" width="12.72" height="18.55" style="fill:#e6e6e6"></rect><rect x="335.03" y="153.61" width="2.52" height="18.55" style="fill:#f0f0f0"></rect></g><g id="background-simple"><path d="M196,381.81c-32,1.21-124.36-25-124.36-108.61,0-87.09,54.61-109.11,128.73-109.11,69.21,0,51.71-86.1,145.33-86.1C424.94,78,488,231.73,358.41,283.81,277.72,316.23,291.53,378.19,196,381.81Z" style="fill:#2563EB"></path><path d="M196,381.81c-32,1.21-124.36-25-124.36-108.61,0-87.09,54.61-109.11,128.73-109.11,69.21,0,51.71-86.1,145.33-86.1C424.94,78,488,231.73,358.41,283.81,277.72,316.23,291.53,378.19,196,381.81Z" style="fill:#fff;opacity:0.9"></path></g><g id="Shadow"><ellipse id="path" cx="245.18" cy="412.39" rx="193.89" ry="11.32" style="fill:#f5f5f5"></ellipse></g><g id="Desk"><path d="M255.29,327.66v53.27A28.31,28.31,0,0,1,227,409.24H208.35a28.32,28.32,0,0,0,28.31-28.31V327.66a28.32,28.32,0,0,0-28.31-28.31H227A28.31,28.31,0,0,1,255.29,327.66Z" style="fill:#2563EB"></path><path d="M255.29,327.66v53.27A28.31,28.31,0,0,1,227,409.24H208.35a28.32,28.32,0,0,0,28.31-28.31V327.66a28.32,28.32,0,0,0-28.31-28.31H227A28.31,28.31,0,0,1,255.29,327.66Z" style="opacity:0.1"></path><path d="M94.15,409.24H75.51a28.31,28.31,0,0,1-28.3-28.31V327.66a28.31,28.31,0,0,1,28.3-28.31H94.15a28.31,28.31,0,0,0-28.31,28.31v53.27A28.31,28.31,0,0,0,94.15,409.24Z" style="fill:#2563EB"></path><path d="M94.15,409.24H75.51a28.31,28.31,0,0,1-28.3-28.31V327.66a28.31,28.31,0,0,1,28.3-28.31H94.15a28.31,28.31,0,0,0-28.31,28.31v53.27A28.31,28.31,0,0,0,94.15,409.24Z" style="fill:#2563EB"></path><path d="M227,299.35H94.15a28.31,28.31,0,0,0-28.31,28.31v53.27a28.31,28.31,0,0,0,28.31,28.3H227a28.3,28.3,0,0,0,28.3-28.3V327.66A28.3,28.3,0,0,0,227,299.35Zm0,0H94.15a28.31,28.31,0,0,0-28.31,28.31v53.27a28.31,28.31,0,0,0,28.31,28.3H227a28.3,28.3,0,0,0,28.3-28.3V327.66A28.3,28.3,0,0,0,227,299.35Zm21.3,81.58a21.32,21.32,0,0,1-21.3,21.3H94.15a21.33,21.33,0,0,1-21.31-21.3V327.66a21.33,21.33,0,0,1,21.31-21.31H227a21.33,21.33,0,0,1,21.3,21.31Zm0,0a21.32,21.32,0,0,1-21.3,21.3H94.15a21.33,21.33,0,0,1-21.31-21.3V327.66a21.33,21.33,0,0,1,21.31-21.31H227a21.33,21.33,0,0,1,21.3,21.31Z" style="fill:#2563EB"></path><path d="M227,299.35H94.15a28.31,28.31,0,0,0-28.31,28.31v53.27a28.31,28.31,0,0,0,28.31,28.3H227a28.3,28.3,0,0,0,28.3-28.3V327.66A28.3,28.3,0,0,0,227,299.35Zm21.3,81.58a21.32,21.32,0,0,1-21.3,21.3H94.15a21.33,21.33,0,0,1-21.31-21.3V327.66a21.33,21.33,0,0,1,21.31-21.31H227a21.33,21.33,0,0,1,21.3,21.31Z" style="fill:#fff;opacity:0.30000000000000004"></path></g><g id="Drawer"><polygon points="322.26 409.25 410.18 409.25 413.11 293.51 316.29 293.51 322.26 409.25" style="fill:#2563EB"></polygon><polygon points="322.26 409.25 410.18 409.25 413.11 293.51 316.29 293.51 322.26 409.25" style="fill:#fff;opacity:0.30000000000000004"></polygon><polygon points="405.69 409.25 431.07 409.25 437.04 293.51 408.15 293.51 405.69 409.25" style="fill:#2563EB"></polygon><polygon points="307.02 295.46 401.92 295.46 402.12 286.27 306.52 286.27 307.02 295.46" style="fill:#2563EB"></polygon><polygon points="307.02 295.46 401.92 295.46 402.12 286.27 306.52 286.27 307.02 295.46" style="fill:#fff;opacity:0.7000000000000001"></polygon><polygon points="400.77 295.46 444.47 295.46 444.97 286.27 400.96 286.27 400.77 295.46" style="fill:#2563EB"></polygon><polygon points="400.77 295.46 444.47 295.46 444.97 286.27 400.96 286.27 400.77 295.46" style="fill:#fff;opacity:0.6000000000000001"></polygon><polygon points="323.55 318.27 401.65 318.27 401.94 300.66 322.73 300.66 323.55 318.27" style="fill:#2563EB"></polygon><polygon points="323.55 318.27 401.65 318.27 401.94 300.66 322.73 300.66 323.55 318.27" style="fill:#fff;opacity:0.4"></polygon><path d="M358.76,309.83a2.4,2.4,0,0,1-2.28-2.44,2.3,2.3,0,0,1,2.2-2.45h2.95a2.39,2.39,0,0,1,2.28,2.45,2.3,2.3,0,0,1-2.2,2.44Z" style="fill:#2563EB"></path><path d="M358.76,309.83a2.4,2.4,0,0,1-2.28-2.44,2.3,2.3,0,0,1,2.2-2.45h2.95a2.39,2.39,0,0,1,2.28,2.45,2.3,2.3,0,0,1-2.2,2.44Z" style="fill:#fff;opacity:0.30000000000000004"></path><path d="M356.48,307.39a2.4,2.4,0,0,0,2.28,2.44,2.29,2.29,0,0,0,2.2-2.44,2.4,2.4,0,0,0-2.28-2.45A2.3,2.3,0,0,0,356.48,307.39Z" style="fill:#2563EB"></path><path d="M356.48,307.39a2.4,2.4,0,0,0,2.28,2.44,2.29,2.29,0,0,0,2.2-2.44,2.4,2.4,0,0,0-2.28-2.45A2.3,2.3,0,0,0,356.48,307.39Z" style="fill:#fff;opacity:0.7000000000000001"></path><polygon points="324.58 340.26 401.29 340.26 401.57 323.28 323.79 323.28 324.58 340.26" style="fill:#2563EB"></polygon><polygon points="324.58 340.26 401.29 340.26 401.57 323.28 323.79 323.28 324.58 340.26" style="fill:#fff;opacity:0.4"></polygon><path d="M359.17,332.12a2.34,2.34,0,0,1-2.25-2.35,2.23,2.23,0,0,1,2.16-2.36H362a2.34,2.34,0,0,1,2.25,2.36,2.25,2.25,0,0,1-2.17,2.35Z" style="fill:#2563EB"></path><path d="M359.17,332.12a2.34,2.34,0,0,1-2.25-2.35,2.23,2.23,0,0,1,2.16-2.36H362a2.34,2.34,0,0,1,2.25,2.36,2.25,2.25,0,0,1-2.17,2.35Z" style="fill:#fff;opacity:0.30000000000000004"></path><path d="M356.92,329.77a2.34,2.34,0,0,0,2.25,2.35,2.24,2.24,0,0,0,2.16-2.35,2.34,2.34,0,0,0-2.25-2.36A2.24,2.24,0,0,0,356.92,329.77Z" style="fill:#2563EB"></path><path d="M356.92,329.77a2.34,2.34,0,0,0,2.25,2.35,2.24,2.24,0,0,0,2.16-2.35,2.34,2.34,0,0,0-2.25-2.36A2.24,2.24,0,0,0,356.92,329.77Z" style="fill:#fff;opacity:0.7000000000000001"></path><polygon points="325.57 402.49 400.94 402.49 401.21 345.1 324.81 345.1 325.57 402.49" style="fill:#2563EB"></polygon><g style="opacity:0.4"><polygon points="325.57 402.49 400.94 402.49 401.21 345.1 324.81 345.1 325.57 402.49" style="fill:#fff"></polygon></g><path d="M359.56,353.63a2.27,2.27,0,0,1-2.21-2.27,2.18,2.18,0,0,1,2.12-2.28h2.86a2.27,2.27,0,0,1,2.2,2.28,2.18,2.18,0,0,1-2.13,2.27Z" style="fill:#2563EB"></path><path d="M359.56,353.63a2.27,2.27,0,0,1-2.21-2.27,2.18,2.18,0,0,1,2.12-2.28h2.86a2.27,2.27,0,0,1,2.2,2.28,2.18,2.18,0,0,1-2.13,2.27Z" style="fill:#fff;opacity:0.30000000000000004"></path><path d="M357.35,351.36a2.27,2.27,0,0,0,2.21,2.27,2.17,2.17,0,0,0,2.12-2.27,2.27,2.27,0,0,0-2.21-2.28A2.18,2.18,0,0,0,357.35,351.36Z" style="fill:#2563EB"></path><path d="M357.35,351.36a2.27,2.27,0,0,0,2.21,2.27,2.17,2.17,0,0,0,2.12-2.27,2.27,2.27,0,0,0-2.21-2.28A2.18,2.18,0,0,0,357.35,351.36Z" style="fill:#fff;opacity:0.7000000000000001"></path></g><g id="device-1"><path d="M194,299.35h15.68V298a4.77,4.77,0,0,0-5-4.76l-6.14.33a4.77,4.77,0,0,0-4.51,4.76Z" style="fill:#2563EB"></path><path d="M194,299.35h15.68V298a4.77,4.77,0,0,0-5-4.76l-6.14.33a4.77,4.77,0,0,0-4.51,4.76Z" style="fill:#fff;opacity:0.7000000000000001"></path><path d="M119.82,299.35h23.64l3.76-33a2.31,2.31,0,0,0-2.31-2.21H129.07a2.32,2.32,0,0,0-2.32,2.21Z" style="fill:#2563EB"></path><path d="M119.82,299.35h23.64l3.76-33a2.31,2.31,0,0,0-2.31-2.21H129.07a2.32,2.32,0,0,0-2.32,2.21Z" style="opacity:0.6000000000000001"></path><path d="M83.73,215.58h5.91l6.63,62.35h-5.9a2,2,0,0,1-2-1.77l-6.26-58.8A1.57,1.57,0,0,1,83.73,215.58Z" style="fill:#2563EB"></path><path d="M83.73,215.58h5.91l6.63,62.35h-5.9a2,2,0,0,1-2-1.77l-6.26-58.8A1.57,1.57,0,0,1,83.73,215.58Z" style="opacity:0.6000000000000001"></path><path d="M92.86,277.93h88.46a1.56,1.56,0,0,0,1.58-1.77l-6.25-58.8a2,2,0,0,0-2-1.78H86.23a1.56,1.56,0,0,0-1.58,1.78l6.25,58.8A2,2,0,0,0,92.86,277.93Z" style="fill:#2563EB"></path><path d="M94.52,272.17h83.41a1.36,1.36,0,0,0,1.38-1.54l-5.46-51.31a1.75,1.75,0,0,0-1.71-1.54H88.73a1.36,1.36,0,0,0-1.38,1.54l5.46,51.31A1.75,1.75,0,0,0,94.52,272.17Z" style="fill:#2563EB"></path><path d="M94.52,272.17h83.41a1.36,1.36,0,0,0,1.38-1.54l-5.46-51.31a1.75,1.75,0,0,0-1.71-1.54H88.73a1.36,1.36,0,0,0-1.38,1.54l5.46,51.31A1.75,1.75,0,0,0,94.52,272.17Z" style="fill:#fff;opacity:0.4"></path><rect x="117.65" y="296.78" width="31.64" height="2.56" rx="0.96" transform="translate(266.94 596.13) rotate(-180)" style="fill:#2563EB"></rect><rect x="117.65" y="296.78" width="31.64" height="2.56" rx="0.96" transform="translate(266.94 596.13) rotate(-180)" style="opacity:0.6000000000000001"></rect><path d="M178.24,272.17l-24.79-21.54c-2.35-2-5.37-2-6.73,0l-14.36,21.54Z" style="fill:#ebebeb"></path><path d="M153.45,250.63l24.79,21.54H154.47c2.37-1.2,7.95-1.84,7.29-4.58-.86-3.57-11.92-2.32-12.74-5.71s7.06-2.32,6.07-6.43c-.52-2.16-2.56-4.5-4.39-6.24A6.16,6.16,0,0,1,153.45,250.63Z" style="fill:#f5f5f5"></path><path d="M141.76,272.17l-11-10.87c-1.05-1-2.38-1-3,0l-6.36,10.87Z" style="fill:#ebebeb"></path><path d="M130.78,261.3l11,10.87H131.23c1.05-.6,3.52-.93,3.23-2.31-.38-1.8-5.28-1.17-5.65-2.88s3.13-1.17,2.69-3.24a7.66,7.66,0,0,0-1.94-3.15A2.67,2.67,0,0,1,130.78,261.3Z" style="fill:#fafafa"></path><path d="M123,272.17,107.57,261.3c-1.46-1-3.33-1-4.18,0l-8.92,10.87Z" style="fill:#ebebeb"></path><path d="M107.57,261.3,123,272.17H108.2c1.47-.6,4.94-.93,4.53-2.31-.54-1.8-7.4-1.17-7.91-2.88s4.38-1.17,3.77-3.24a7.83,7.83,0,0,0-2.73-3.15A4.22,4.22,0,0,1,107.57,261.3Z" style="fill:#fafafa"></path><path d="M183.64,297.27h2.21a.42.42,0,0,0,.42-.43v-2.33a.42.42,0,0,0-.42-.42h-1.58a.42.42,0,0,0-.41.31l-.62,2.34A.42.42,0,0,0,183.64,297.27Z" style="fill:#2563EB"></path><path d="M180.59,297.27h2.21a.42.42,0,0,0,.42-.43v-2.33a.42.42,0,0,0-.42-.42h-1.58a.43.43,0,0,0-.41.31l-.62,2.34A.42.42,0,0,0,180.59,297.27Z" style="fill:#2563EB"></path><path d="M177.55,297.27h2.2a.42.42,0,0,0,.42-.43v-2.33a.42.42,0,0,0-.42-.42h-1.58a.43.43,0,0,0-.41.31l-.62,2.34A.43.43,0,0,0,177.55,297.27Z" style="fill:#2563EB"></path><path d="M174.5,297.27h2.2a.42.42,0,0,0,.42-.43v-2.33a.42.42,0,0,0-.42-.42h-1.58a.43.43,0,0,0-.41.31l-.62,2.34A.43.43,0,0,0,174.5,297.27Z" style="fill:#2563EB"></path><path d="M171.45,297.27h2.2a.43.43,0,0,0,.43-.43v-2.33a.42.42,0,0,0-.43-.42h-1.58a.43.43,0,0,0-.41.31l-.62,2.34A.43.43,0,0,0,171.45,297.27Z" style="fill:#2563EB"></path><path d="M168.4,297.27h2.21a.42.42,0,0,0,.42-.43v-2.33a.42.42,0,0,0-.42-.42H169a.41.41,0,0,0-.4.31l-.63,2.34A.43.43,0,0,0,168.4,297.27Z" style="fill:#2563EB"></path><path d="M165.35,297.27h2.21a.42.42,0,0,0,.42-.43v-2.33a.42.42,0,0,0-.42-.42H166a.42.42,0,0,0-.4.31l-.63,2.34A.43.43,0,0,0,165.35,297.27Z" style="fill:#2563EB"></path><path d="M162.3,297.27h2.21a.42.42,0,0,0,.42-.43v-2.33a.42.42,0,0,0-.42-.42h-1.58a.42.42,0,0,0-.41.31l-.62,2.34A.42.42,0,0,0,162.3,297.27Z" style="fill:#2563EB"></path><path d="M159.25,297.27h2.21a.42.42,0,0,0,.42-.43v-2.33a.42.42,0,0,0-.42-.42h-1.58a.43.43,0,0,0-.41.31l-.62,2.34A.42.42,0,0,0,159.25,297.27Z" style="fill:#2563EB"></path><path d="M156.21,297.27h2.2a.42.42,0,0,0,.42-.43v-2.33a.42.42,0,0,0-.42-.42h-1.58a.43.43,0,0,0-.41.31l-.62,2.34A.43.43,0,0,0,156.21,297.27Z" style="fill:#2563EB"></path><path d="M153.16,297.27h2.2a.42.42,0,0,0,.42-.43v-2.33a.42.42,0,0,0-.42-.42h-1.58a.43.43,0,0,0-.41.31l-.62,2.34A.43.43,0,0,0,153.16,297.27Z" style="fill:#2563EB"></path><path d="M150.11,297.27h2.21a.42.42,0,0,0,.42-.43v-2.33a.42.42,0,0,0-.42-.42h-1.59a.43.43,0,0,0-.41.31l-.62,2.34A.43.43,0,0,0,150.11,297.27Z" style="fill:#2563EB"></path><path d="M147.06,297.27h2.21a.42.42,0,0,0,.42-.43v-2.33a.42.42,0,0,0-.42-.42h-1.59a.41.41,0,0,0-.4.31l-.63,2.34A.43.43,0,0,0,147.06,297.27Z" style="fill:#2563EB"></path><path d="M144,297.27h2.21a.42.42,0,0,0,.42-.43v-2.33a.42.42,0,0,0-.42-.42h-1.59a.42.42,0,0,0-.4.31l-.62,2.34A.42.42,0,0,0,144,297.27Z" style="fill:#2563EB"></path><path d="M141,297.27h2.21a.42.42,0,0,0,.42-.43v-2.33a.42.42,0,0,0-.42-.42h-1.58a.42.42,0,0,0-.41.31l-.62,2.34A.42.42,0,0,0,141,297.27Z" style="fill:#2563EB"></path><rect x="138.74" y="295.68" width="49.32" height="3.67" transform="translate(326.81 595.03) rotate(180)" style="fill:#2563EB"></rect><g style="opacity:0.7000000000000001"><path d="M183.64,297.27h2.21a.42.42,0,0,0,.42-.43v-2.33a.42.42,0,0,0-.42-.42h-1.58a.42.42,0,0,0-.41.31l-.62,2.34A.42.42,0,0,0,183.64,297.27Z" style="fill:#fff"></path><path d="M180.59,297.27h2.21a.42.42,0,0,0,.42-.43v-2.33a.42.42,0,0,0-.42-.42h-1.58a.43.43,0,0,0-.41.31l-.62,2.34A.42.42,0,0,0,180.59,297.27Z" style="fill:#fff"></path><path d="M177.55,297.27h2.2a.42.42,0,0,0,.42-.43v-2.33a.42.42,0,0,0-.42-.42h-1.58a.43.43,0,0,0-.41.31l-.62,2.34A.43.43,0,0,0,177.55,297.27Z" style="fill:#fff"></path><path d="M174.5,297.27h2.2a.42.42,0,0,0,.42-.43v-2.33a.42.42,0,0,0-.42-.42h-1.58a.43.43,0,0,0-.41.31l-.62,2.34A.43.43,0,0,0,174.5,297.27Z" style="fill:#fff"></path><path d="M171.45,297.27h2.2a.43.43,0,0,0,.43-.43v-2.33a.42.42,0,0,0-.43-.42h-1.58a.43.43,0,0,0-.41.31l-.62,2.34A.43.43,0,0,0,171.45,297.27Z" style="fill:#fff"></path><path d="M168.4,297.27h2.21a.42.42,0,0,0,.42-.43v-2.33a.42.42,0,0,0-.42-.42H169a.41.41,0,0,0-.4.31l-.63,2.34A.43.43,0,0,0,168.4,297.27Z" style="fill:#fff"></path><path d="M165.35,297.27h2.21a.42.42,0,0,0,.42-.43v-2.33a.42.42,0,0,0-.42-.42H166a.42.42,0,0,0-.4.31l-.63,2.34A.43.43,0,0,0,165.35,297.27Z" style="fill:#fff"></path><path d="M162.3,297.27h2.21a.42.42,0,0,0,.42-.43v-2.33a.42.42,0,0,0-.42-.42h-1.58a.42.42,0,0,0-.41.31l-.62,2.34A.42.42,0,0,0,162.3,297.27Z" style="fill:#fff"></path><path d="M159.25,297.27h2.21a.42.42,0,0,0,.42-.43v-2.33a.42.42,0,0,0-.42-.42h-1.58a.43.43,0,0,0-.41.31l-.62,2.34A.42.42,0,0,0,159.25,297.27Z" style="fill:#fff"></path><path d="M156.21,297.27h2.2a.42.42,0,0,0,.42-.43v-2.33a.42.42,0,0,0-.42-.42h-1.58a.43.43,0,0,0-.41.31l-.62,2.34A.43.43,0,0,0,156.21,297.27Z" style="fill:#fff"></path><path d="M153.16,297.27h2.2a.42.42,0,0,0,.42-.43v-2.33a.42.42,0,0,0-.42-.42h-1.58a.43.43,0,0,0-.41.31l-.62,2.34A.43.43,0,0,0,153.16,297.27Z" style="fill:#fff"></path><path d="M150.11,297.27h2.21a.42.42,0,0,0,.42-.43v-2.33a.42.42,0,0,0-.42-.42h-1.59a.43.43,0,0,0-.41.31l-.62,2.34A.43.43,0,0,0,150.11,297.27Z" style="fill:#fff"></path><path d="M147.06,297.27h2.21a.42.42,0,0,0,.42-.43v-2.33a.42.42,0,0,0-.42-.42h-1.59a.41.41,0,0,0-.4.31l-.63,2.34A.43.43,0,0,0,147.06,297.27Z" style="fill:#fff"></path><path d="M144,297.27h2.21a.42.42,0,0,0,.42-.43v-2.33a.42.42,0,0,0-.42-.42h-1.59a.42.42,0,0,0-.4.31l-.62,2.34A.42.42,0,0,0,144,297.27Z" style="fill:#fff"></path><path d="M141,297.27h2.21a.42.42,0,0,0,.42-.43v-2.33a.42.42,0,0,0-.42-.42h-1.58a.42.42,0,0,0-.41.31l-.62,2.34A.42.42,0,0,0,141,297.27Z" style="fill:#fff"></path><rect x="138.74" y="295.68" width="49.32" height="3.67" transform="translate(326.81 595.03) rotate(180)" style="fill:#fff"></rect><rect x="153.87" y="295.68" width="34.2" height="3.67" transform="translate(341.93 595.03) rotate(180)" style="opacity:0.1"></rect></g><g style="opacity:0.2"><path d="M143.1,217.71a13.12,13.12,0,0,0,1.14,4.33,32.37,32.37,0,0,0,2.55,4.82c-4.93.11-8.65.37-10.5.07a15.44,15.44,0,0,1-2.2-10.42c2.92,1,6.46.21,9.46,1Z"></path></g><path d="M143,216.46a13.36,13.36,0,0,0,1.68,4.21,33.25,33.25,0,0,0,3.14,4.58,56.47,56.47,0,0,1-10.54.15,12.46,12.46,0,0,1-3.23-8.89C137.6,216.51,143,216.46,143,216.46Z" style="fill:#fff"></path><g style="opacity:0.2"><path d="M132.2,217.67a12.87,12.87,0,0,0,1.14,4.34,31.46,31.46,0,0,0,2.55,4.82c-4.93.11-8.65.37-10.5.07a15.44,15.44,0,0,1-2.2-10.42c2.91,1,6.45.2,9.46,1Z"></path></g><path d="M132.14,216.43a13.36,13.36,0,0,0,1.68,4.21,33,33,0,0,0,3.14,4.58,56.21,56.21,0,0,1-10.54.14,12.42,12.42,0,0,1-3.23-8.88C126.7,216.48,132.14,216.43,132.14,216.43Z" style="fill:#fff"></path><g style="opacity:0.2"><path d="M107.13,275.41a12.64,12.64,0,0,0,1.14,4.34,31.46,31.46,0,0,0,2.55,4.82c-4.93.11-8.65.37-10.5.07a15.44,15.44,0,0,1-2.2-10.42c2.91,1,6.45.2,9.46,1Z"></path></g><path d="M107.07,274.16a13.32,13.32,0,0,0,1.68,4.22,33.58,33.58,0,0,0,3.14,4.58,56.21,56.21,0,0,1-10.54.14,12.42,12.42,0,0,1-3.23-8.88C101.63,274.22,107.07,274.16,107.07,274.16Z" style="fill:#fff"></path><g style="opacity:0.2"><path d="M173.24,217.61a13.12,13.12,0,0,0,1.14,4.33,31.56,31.56,0,0,0,2.55,4.83c-4.93.1-8.65.36-10.5.07a15.46,15.46,0,0,1-2.2-10.42c2.91,1,6.45.2,9.46,1Z"></path></g><path d="M173.18,216.36a13.36,13.36,0,0,0,1.68,4.21,33.06,33.06,0,0,0,3.14,4.59,57.11,57.11,0,0,1-10.54.14,12.45,12.45,0,0,1-3.23-8.88C167.74,216.42,173.18,216.36,173.18,216.36Z" style="fill:#fff"></path><path d="M152.79,243.32H116.65a2,2,0,0,1-1.94-1.78h0a1.6,1.6,0,0,1,1.63-1.78h36.14a2,2,0,0,1,1.94,1.78h0A1.62,1.62,0,0,1,152.79,243.32Z" style="fill:#f0f0f0"></path></g><g id="device-2"><path d="M334.14,264.47v19.94h5.1s.49,1.47,0,1.47H327V264.47Z" style="fill:#2563EB"></path><path d="M334.14,264.47v19.94h5.1s.49,1.47,0,1.47H327V264.47Z" style="opacity:0.6000000000000001"></path><g id="smartphone-screen"><g id="group"><path d="M329.82,285.88H320.7a1.42,1.42,0,0,1-1.43-1.57L321,264.47a1.75,1.75,0,0,1,1.7-1.56h9.12a1.42,1.42,0,0,1,1.43,1.56l-1.74,19.84A1.75,1.75,0,0,1,329.82,285.88Z" style="fill:#2563EB"></path><path d="M329.82,285.88H320.7a1.42,1.42,0,0,1-1.43-1.57L321,264.47a1.75,1.75,0,0,1,1.7-1.56h9.12a1.42,1.42,0,0,1,1.43,1.56l-1.74,19.84A1.75,1.75,0,0,1,329.82,285.88Z" style="opacity:0.1"></path><path d="M326.11,284.41a.84.84,0,0,1-.81.75.68.68,0,0,1-.68-.75.83.83,0,0,1,.81-.74A.67.67,0,0,1,326.11,284.41Z" style="fill:none;stroke:#fff;stroke-miterlimit:10;stroke-width:0.5px;opacity:0.8"></path><g style="opacity:0.8"><path d="M325.3,264.74a.46.46,0,0,1-.11-.36v-.06a.51.51,0,0,1,.51-.47h2.95a.45.45,0,0,1,.35.15.44.44,0,0,1,.11.35v.07a.53.53,0,0,1-.51.47h-3A.45.45,0,0,1,325.3,264.74Zm3.61-.41-.26-.06H325.7a.1.1,0,0,0-.09.08v.07l-.21,0,.26.07h3a.1.1,0,0,0,.09-.09v-.06Z" style="fill:#fff"></path></g><polygon points="330.74 282.57 320.24 282.57 321.72 265.65 332.22 265.65 330.74 282.57" style="fill:#fff;opacity:0.4"></polygon><polygon points="328.01 262.98 322.93 285.88 325.98 285.88 331.01 262.98 328.01 262.98" style="fill:#fff;opacity:0.1;isolation:isolate"></polygon><polygon points="325.63 262.98 320.55 285.88 322.09 285.88 327.12 262.98 325.63 262.98" style="fill:#fff;opacity:0.1;isolation:isolate"></polygon></g></g><path d="M329.82,285.88h.88a1.74,1.74,0,0,0,1.7-1.57l1.74-19.84a1.41,1.41,0,0,0-1.43-1.56h-.88a1.41,1.41,0,0,1,1.43,1.56l-1.74,19.84A1.76,1.76,0,0,1,329.82,285.88Z" style="fill:#fff;opacity:0.8"></path></g><g id="Calendar"><polygon points="407.01 286.5 419.35 286.5 413.18 262.26 407.01 286.5" style="fill:#2563EB"></polygon><polygon points="407.01 286.5 419.35 286.5 413.18 262.26 407.01 286.5" style="opacity:0.6000000000000001"></polygon><polygon points="371.52 286.5 377.69 262.26 413.18 262.26 407.01 286.5 371.52 286.5" style="fill:#2563EB"></polygon><polygon points="371.52 286.5 377.69 262.26 413.18 262.26 407.01 286.5 371.52 286.5" style="fill:#fff;opacity:0.4"></polygon><path d="M381.06,260a2.45,2.45,0,0,1,3.26,1.33,2.37,2.37,0,0,1,1.29-1.33,2.46,2.46,0,0,1,3.26,1.33,2.37,2.37,0,0,1,1.29-1.33,2.46,2.46,0,0,1,3.26,1.33,2.33,2.33,0,0,1,1.29-1.33,2.44,2.44,0,0,1,3.25,1.33,2.38,2.38,0,0,1,1.3-1.33,2.44,2.44,0,0,1,3.25,1.33A2.37,2.37,0,0,1,403.8,260a2.45,2.45,0,0,1,3.26,1.33,2.37,2.37,0,0,1,1.29-1.33,2.52,2.52,0,0,1,3.49,2.29c0,.36-.55.36-.56,0a1.93,1.93,0,1,0-3.3,1.36c.24.27-.16.67-.4.4a2.68,2.68,0,0,1-.67-1.52.24.24,0,0,1-.18-.24,1.93,1.93,0,1,0-3.3,1.36c.24.27-.16.67-.4.4a2.68,2.68,0,0,1-.67-1.52.25.25,0,0,1-.18-.24,1.93,1.93,0,1,0-3.3,1.36c.24.27-.16.67-.4.4a2.68,2.68,0,0,1-.67-1.52.26.26,0,0,1-.18-.24,1.93,1.93,0,1,0-3.3,1.36c.24.27-.15.67-.4.4a2.75,2.75,0,0,1-.67-1.52.26.26,0,0,1-.18-.24,1.93,1.93,0,1,0-3.3,1.36c.25.27-.15.67-.4.4a2.75,2.75,0,0,1-.67-1.52.26.26,0,0,1-.18-.24,1.93,1.93,0,1,0-3.29,1.36c.24.27-.16.67-.4.4a2.62,2.62,0,0,1-.67-1.52.26.26,0,0,1-.19-.24,1.93,1.93,0,1,0-3.29,1.36c.24.27-.16.67-.4.4A2.52,2.52,0,0,1,381.06,260Z" style="fill:#2563EB"></path><path d="M381.06,260a2.45,2.45,0,0,1,3.26,1.33,2.37,2.37,0,0,1,1.29-1.33,2.46,2.46,0,0,1,3.26,1.33,2.37,2.37,0,0,1,1.29-1.33,2.46,2.46,0,0,1,3.26,1.33,2.33,2.33,0,0,1,1.29-1.33,2.44,2.44,0,0,1,3.25,1.33,2.38,2.38,0,0,1,1.3-1.33,2.44,2.44,0,0,1,3.25,1.33A2.37,2.37,0,0,1,403.8,260a2.45,2.45,0,0,1,3.26,1.33,2.37,2.37,0,0,1,1.29-1.33,2.52,2.52,0,0,1,3.49,2.29c0,.36-.55.36-.56,0a1.93,1.93,0,1,0-3.3,1.36c.24.27-.16.67-.4.4a2.68,2.68,0,0,1-.67-1.52.24.24,0,0,1-.18-.24,1.93,1.93,0,1,0-3.3,1.36c.24.27-.16.67-.4.4a2.68,2.68,0,0,1-.67-1.52.25.25,0,0,1-.18-.24,1.93,1.93,0,1,0-3.3,1.36c.24.27-.16.67-.4.4a2.68,2.68,0,0,1-.67-1.52.26.26,0,0,1-.18-.24,1.93,1.93,0,1,0-3.3,1.36c.24.27-.15.67-.4.4a2.75,2.75,0,0,1-.67-1.52.26.26,0,0,1-.18-.24,1.93,1.93,0,1,0-3.3,1.36c.25.27-.15.67-.4.4a2.75,2.75,0,0,1-.67-1.52.26.26,0,0,1-.18-.24,1.93,1.93,0,1,0-3.29,1.36c.24.27-.16.67-.4.4a2.62,2.62,0,0,1-.67-1.52.26.26,0,0,1-.19-.24,1.93,1.93,0,1,0-3.29,1.36c.24.27-.16.67-.4.4A2.52,2.52,0,0,1,381.06,260Z" style="fill:#fff;opacity:0.6000000000000001"></path><path d="M381.8,271.15l-.17,1H377l.14-.78L380,269c.72-.59.9-1,1-1.31.1-.58-.24-.92-1-.92a2.17,2.17,0,0,0-1.6.66l-.71-.63a3.51,3.51,0,0,1,2.59-1c1.38,0,2.14.7,1.94,1.82a3.11,3.11,0,0,1-1.4,2l-2,1.61Z" style="fill:#2563EB"></path><path d="M387.14,270.24a2.62,2.62,0,0,1-2.86,2,3.43,3.43,0,0,1-2.25-.73l.67-.91a2.5,2.5,0,0,0,1.74.62c.84,0,1.41-.37,1.51-1s-.25-.94-1.21-.94h-.58l.14-.8L386,266.8h-2.87l.17-1h4.32l-.14.79-1.86,1.83C386.82,268.58,387.3,269.29,387.14,270.24Z" style="fill:#2563EB"></path><path d="M381.8,271.15l-.17,1H377l.14-.78L380,269c.72-.59.9-1,1-1.31.1-.58-.24-.92-1-.92a2.17,2.17,0,0,0-1.6.66l-.71-.63a3.51,3.51,0,0,1,2.59-1c1.38,0,2.14.7,1.94,1.82a3.11,3.11,0,0,1-1.4,2l-2,1.61Z" style="fill:#fff"></path><path d="M387.14,270.24a2.62,2.62,0,0,1-2.86,2,3.43,3.43,0,0,1-2.25-.73l.67-.91a2.5,2.5,0,0,0,1.74.62c.84,0,1.41-.37,1.51-1s-.25-.94-1.21-.94h-.58l.14-.8L386,266.8h-2.87l.17-1h4.32l-.14.79-1.86,1.83C386.82,268.58,387.3,269.29,387.14,270.24Z" style="fill:#fff"></path><polygon points="404.57 284.31 375.05 284.31 378 273.28 378.97 273.54 376.35 283.31 403.8 283.31 408.21 266.84 388.58 266.84 388.58 265.84 409.52 265.84 404.57 284.31" style="fill:#2563EB"></polygon></g><g id="Character"><g id="group"><path d="M221.64,139.87c5.81-1.35,10.79-3.17,16.73-3.84a128.49,128.49,0,0,1,15.33-.36c4.28,25.46,8.1,62,8.91,68.41l-41.5,7.13a199.81,199.81,0,0,0-7.82-39.08c-8.36-28.46-3.22-28.09-3.22-28.09A77.87,77.87,0,0,1,221.64,139.87Z" style="fill:#2563EB"></path><path d="M240.41,135.37l-.62.8c-.8,1-1.61,2.07-2.47,3.07,0,0,0,0,0,0a45.34,45.34,0,0,1-9.88,5.48,13.82,13.82,0,0,1-4-2,4.69,4.69,0,0,1-.67-2.42,3.23,3.23,0,0,1,.19-1.15,6.27,6.27,0,0,0,3-3.33,3.21,3.21,0,0,0,.22-.79c.44-2.11-.29-4.47-1.29-6.71l9.24-11.11C234,122.72,234.85,133,240.41,135.37Z" style="fill:#b25b52"></path><path d="M222.74,140.3a4.69,4.69,0,0,0,.67,2.42,5.65,5.65,0,0,1-1.13-1.09,2.53,2.53,0,0,1-.66-1.82l.57-.27a6.42,6.42,0,0,0,.74-.39A3.23,3.23,0,0,0,222.74,140.3Z" style="fill:#b25b52"></path><path d="M241.58,135.75s-.75.72-2.07,1.81c-.61.5-1.35,1.07-2.19,1.68.86-1,1.67-2,2.47-3.07l.62-.8a3.12,3.12,0,0,0,.62.23A4.94,4.94,0,0,0,241.58,135.75Z" style="fill:#b25b52"></path><path d="M231,124.79c.18,2.57-2.64,8.17-5.05,6.56a18.45,18.45,0,0,0-1.07-3l5.47-6.57A8.59,8.59,0,0,1,231,124.79Z" style="opacity:0.2;isolation:isolate"></path><path d="M231.76,104a10.66,10.66,0,0,0-14.7-3.36c-7,4.34-6.1,15.93-3.26,22.56,3.15,7.35,13.24,9.25,18.06,2.31,3.21-4.61,2.32-9.11,1.48-16.88A10.74,10.74,0,0,0,231.76,104Z" style="fill:#b25b52"></path><path d="M237.46,112.37l-4.75,5.5s-1.52-1-2.05-6.29c-.18-1.37-1.69-1.73-2.11-3.14s.08-6,1.33-6.14,7.61-.4,7.61-.4Z" style="fill:#b25b52"></path><path d="M237.46,112.37l-4.75,5.5s-1.52-1-2.05-6.29c-.18-1.37-1.69-1.73-2.11-3.14s.08-6,1.33-6.14,7.61-.4,7.61-.4Z" style="opacity:0.2;isolation:isolate"></path><path d="M240.82,268.37c-.66,10-4,45.41-4,45.41,2.58,38.45-3.87,90.84-3.87,90.84l-8.33.37s-4.75-125.13-4.18-137.86Z" style="fill:#b25b52"></path><path d="M240.82,268.37c-.21,3.17-.69,8.9-1.25,15.26-.11,1.16-.21,2.35-.32,3.55-1.15,12.8-2.46,26.6-2.46,26.6,2.58,38.44-3.87,90.84-3.87,90.84l-8.33.38s-4.74-125.13-4.18-137.87Z" style="fill:#b25b52"></path><path d="M251.83,205.92l-5.22,28.87c-4.49,52.45-8.62,94.49-8.62,94.49.07.8.15,1.62.24,2.47a201,201,0,0,1-.18,43.66L236,393.68l-13.24.27c.4-12.44-2.74-48.19-3.06-81.2-.53-54.63,1.25-103,1.25-103Z" style="fill:#2563EB"></path><path d="M251.83,205.92l-5.22,28.87c-4.49,52.45-8.62,94.49-8.62,94.49.07.8.15,1.62.24,2.47a201,201,0,0,1-.18,43.66L236,393.68l-13.24.27c.4-12.44-2.74-48.19-3.06-81.2-.53-54.63,1.25-103,1.25-103Z" style="opacity:0.6000000000000001"></path><path d="M247.64,225.17l-3.74,40.56c-2.54-16.06-5.36-36.36-3.39-53.18Z" style="opacity:0.30000000000000004;isolation:isolate"></path><path d="M311.32,389.82c-4.6-9.15-11.38-20.66-11.38-20.66L313,373.71s4.95,10.43,6,13.55C316.68,388,313.56,388.9,311.32,389.82Z" style="fill:#b25b52"></path><polygon points="256.5 277.89 258.41 284.06 275.51 278.26 274.31 273.03 256.5 277.89" style="opacity:0.2;isolation:isolate"></polygon><path d="M269.31,252.32c2.73,11.76,9.56,39.1,11.92,46.94,14.29,19.54,22.31,51.58,33.58,78.34l-7.31,5s-32-56.06-41.43-79.47c-2.44-6-13.36-34.64-16.27-44.94Z" style="fill:#b25b52"></path><path d="M301,375.5s-24.72-46.3-31.41-57.65c-15-25.37-33.42-109.63-33.42-109.63l26.41-4.14s21.23,99.13,22.71,101.36c13.75,20.73,27.6,64.38,27.6,64.38Z" style="fill:#2563EB"></path><g style="opacity:0.6000000000000001"><path d="M301,375.5s-24.72-46.3-31.41-57.65c-15-25.37-33.42-109.63-33.42-109.63l26.41-4.14s21.23,99.13,22.71,101.36c13.75,20.73,27.6,64.38,27.6,64.38Z"></path></g><path d="M222.67,114.14c-.4.07-.65.63-.54,1.26s.52,1.08.93,1,.66-.63.55-1.26S223.07,114.07,222.67,114.14Z" style="fill:#263238"></path><path d="M214.7,115.17c-.41.07-.65.63-.55,1.26s.53,1.08.94,1,.66-.63.55-1.26S215.11,115.1,214.7,115.17Z" style="fill:#263238"></path><path d="M218.29,119.79a3.67,3.67,0,0,1-3.09-.05,22.54,22.54,0,0,0,2.07-5.87Z" style="fill:#4f0f1a"></path><path d="M224,110h0a.37.37,0,0,0,0-.52,3.68,3.68,0,0,0-3.25-1h0a.36.36,0,0,0-.26.45.37.37,0,0,0,.45.27,3,3,0,0,1,2.56.83.39.39,0,0,0,.33.09A.31.31,0,0,0,224,110Z" style="fill:#263238"></path><path d="M211.68,111.79a3,3,0,0,1,1.92-1.9h0a.38.38,0,0,0,.23-.38.37.37,0,0,0-.41-.34,3.7,3.7,0,0,0-2.44,2.37v0a.35.35,0,0,0,.24.44.26.26,0,0,0,.15,0A.4.4,0,0,0,211.68,111.79Z" style="fill:#263238"></path><path d="M222.59,406.79c-2.42,2.18-7,4.48-14.58,6.14-1.69.37-1.15,4.44,3,4.44s11.82-1,14.79-1.26c4.84-.34,12.48-1.22,10.17-5.49,0,0-1.06-.71-3-7.27l-8.41.75A26.33,26.33,0,0,1,222.59,406.79Z" style="fill:#b25b52"></path><path d="M247.78,143c-.23.71-3.73,5.62.36,16,3.07,7.82,5.45,10.71,5.45,10.71.93,1.49.33-15.06-3.69-24.08C248.68,143,248.75,140.07,247.78,143Z" style="opacity:0.1;isolation:isolate"></path><path d="M253,135.7s-7.83,3.37-5.5,13a214.92,214.92,0,0,0,7,23.23,4,4,0,0,1-.87,4.17l-15.26,16.11,2.35,5.3s23.62-16.55,25.37-21.76c.85-2.52,1-7.52-1.45-19.67-.77-3.83-1.62-7.12-1.93-8.48C260.18,136.66,256.74,135.1,253,135.7Z" style="fill:#2563EB"></path><path d="M253,135.7s-7.83,3.37-5.5,13a214.92,214.92,0,0,0,7,23.23,4,4,0,0,1-.87,4.17l-15.26,16.11,2.35,5.3s23.62-16.55,25.37-21.76c.85-2.52,1-7.52-1.45-19.67-.77-3.83-1.62-7.12-1.93-8.48C260.18,136.66,256.74,135.1,253,135.7Z" style="fill:#fff;opacity:0.13"></path><path d="M240,191.68l-4.17,2.2a5.65,5.65,0,0,0-2.72,3.23l-1.75,5.31a1.36,1.36,0,0,0,.69,1.64l3.35,1.69a1.37,1.37,0,0,0,1.74-.47l3.22-4.86,3.23-5.58S241.57,190.83,240,191.68Z" style="fill:#b25b52"></path><path d="M240,191.68l-4.17,2.2a5.65,5.65,0,0,0-2.72,3.23l-1.75,5.31a1.36,1.36,0,0,0,.69,1.64l3.35,1.69a1.37,1.37,0,0,0,1.74-.47l3.22-4.86,3.23-5.58S241.57,190.83,240,191.68Z" style="opacity:0.1"></path><path d="M220.93,121.81c-.4.07-.65.63-.54,1.26s.51,1.08.93,1,.65-.63.55-1.26S221.33,121.74,220.93,121.81Z" style="fill:#263238"></path></g><g style="opacity:0.6"><path d="M211,113.53a4.74,4.74,0,0,0-.51,1.68,3.63,3.63,0,0,0,.76,2.24l1.26-4.29S211.45,113,211,113.53Z" style="fill:#fff"></path><path d="M217.75,112.93l.57,1.27a6.88,6.88,0,0,1,.89-2.28S217.29,112,217.75,112.93Z" style="fill:#fff"></path></g><path d="M213,119.53a2.59,2.59,0,0,1-1.95-.85,6.24,6.24,0,0,1-1.18-3.7,2.78,2.78,0,0,1,.9-2c1.73-1.53,5.28-1.25,5.43-1.24l.47,0,0,.47c0,.44.26,4.37-1,5.89a3.59,3.59,0,0,1-2.62,1.38Zm2.4-6.71c-1,0-2.92.13-3.91,1a1.69,1.69,0,0,0-.52,1.22,5.35,5.35,0,0,0,.89,2.9,1.48,1.48,0,0,0,1.17.49,2.5,2.5,0,0,0,1.81-1c.74-.88.83-3.31.79-4.63Z" style="fill:#263238"></path><path d="M222.12,117.92a4.85,4.85,0,0,1-2.12-.49c-2-1-3.19-4.74-3.32-5.16l-.14-.48.46-.19c.17-.06,4-1.6,6.48-.81a2.83,2.83,0,0,1,1.8,1.68,5.55,5.55,0,0,1-.05,3.81A3.41,3.41,0,0,1,222.12,117.92Zm-4.23-5.48c.45,1.25,1.43,3.45,2.59,4,1.5.73,3.2.42,3.78-.67a4.52,4.52,0,0,0,0-2.89,1.71,1.71,0,0,0-1.11-1C221.51,111.32,219,112.08,217.89,112.44Z" style="fill:#263238"></path><path d="M217.89,112.55c-1.37-.24-1.93.28-1.95.31l-.38-.37A2.73,2.73,0,0,1,218,112Z" style="fill:#263238"></path><path d="M223.7,111.8l-.09-.51,1.7-.29,7.45-2.24a.45.45,0,0,1,.39.07l1.45,1.1-.78.27s-.64-.91-1.09-.86c-.28,0-5.64,1.75-7.27,2.21Z" style="fill:#263238"></path><rect x="209.85" y="113.55" width="1.45" height="0.52" transform="translate(-16.21 37.23) rotate(-9.73)" style="fill:#263238"></rect><path d="M234,109.93c-2.24.6-3.11,4.06-3,6.28.11,2.46,1.86,4.1,3.78,2.53a7.78,7.78,0,0,0,2.72-4.89C237.85,111.46,236.26,109.33,234,109.93Z" style="fill:#b25b52"></path><path d="M208,95.73l24.17-3.79a6.08,6.08,0,0,1,3.54.14c2,.92,2.38,3.51,2.51,5.69.12,1.93.1,4.17-1.41,5.37a5.84,5.84,0,0,1-3,.94c-6,.71-11.93.52-17.91.68C210.29,104.9,208.46,101,208,95.73Z" style="fill:#263238"></path><path d="M217.24,405.88c-1.49-.09-2.91-.41-3.31-1.18a1.25,1.25,0,0,1,.09-1.33,1.36,1.36,0,0,1,.91-.65c1.95-.45,5.84,2.38,6,2.5a.35.35,0,0,1,.12.32.33.33,0,0,1-.23.25A18,18,0,0,1,217.24,405.88Zm-1.7-2.63a2.39,2.39,0,0,0-.53,0,.83.83,0,0,0-.55.39c-.21.37-.16.55-.1.67.5.87,3.42,1.09,5.57.9a11.58,11.58,0,0,0-4.39-2Z" style="fill:#2563EB"></path><path d="M220.74,405.77l-.11,0c-1.36-.79-4-3.75-3.68-5.18a1,1,0,0,1,1.06-.8,1.89,1.89,0,0,1,1.5.54c1.41,1.46,1.54,4.92,1.55,5.07a.33.33,0,0,1-.09.3Zm-2.54-5.4-.17-.06c-.48,0-.52.24-.54.31-.23.83,1.6,3.16,3,4.22a7.6,7.6,0,0,0-1.32-4.06A1.33,1.33,0,0,0,218.2,400.37Z" style="fill:#2563EB"></path><path d="M222.73,403.53l11.17.1a1,1,0,0,1,1,.91L237,414.88c.15,1.05-1.64,2.24-1.75,2.23-6.83.68-21.52.87-26.37.72s-5.37-5.52-3.37-5.95c8.94-1.88,12.36-4.77,15.25-7.53A2.64,2.64,0,0,1,222.73,403.53Z" style="fill:#263238"></path><path d="M304.44,390.46c-1.21.68-2.49,1.13-3.19.73a1.17,1.17,0,0,1-.6-1.09,1.25,1.25,0,0,1,.39-1c1.3-1.34,5.78-1.07,6-1.06a.33.33,0,0,1,.26.2.27.27,0,0,1-.06.3A16.68,16.68,0,0,1,304.44,390.46Zm-2.65-1.22a2.34,2.34,0,0,0-.41.29.78.78,0,0,0-.23.59c0,.4.15.51.26.58.83.43,3.23-.87,4.82-2.09a10.71,10.71,0,0,0-4.44.65Z" style="fill:#2563EB"></path><path d="M307.14,388.62l-.12,0c-1.46.06-5-.95-5.49-2.22a1,1,0,0,1,.44-1.16,1.73,1.73,0,0,1,1.45-.33c1.83.43,3.67,3.09,3.76,3.2a.32.32,0,0,1,.08.28Zm-4.71-3-.16,0c-.37.27-.29.45-.27.52.23.77,2.84,1.68,4.45,1.83a7.12,7.12,0,0,0-3.08-2.53A1.18,1.18,0,0,0,302.43,385.65Z" style="fill:#2563EB"></path><path d="M307.57,385.85l8.83-5.53a1,1,0,0,1,1.21.24l6.88,7c.65.75-.17,2.58-.25,2.63-5,4-16.47,11.49-20.35,13.8s-7-1.64-5.64-3c6.08-6,7.31-10,8.2-13.57A2.51,2.51,0,0,1,307.57,385.85Z" style="fill:#263238"></path><path d="M203.8,109.34l2.76-5a1.36,1.36,0,0,1,1-.71l5.21-.94a1.39,1.39,0,0,1,1.35.49l1.37,1.7a1.41,1.41,0,0,1-.14,1.93,15.41,15.41,0,0,0-3.48,4.38c-1.32,2.79-2.95,3.35-5.73,4.19S201.65,111.5,203.8,109.34Z" style="fill:#b25b52"></path><g style="opacity:0.1;isolation:isolate"><path d="M203.8,109.34l2.76-5a1.36,1.36,0,0,1,1-.71l5.21-.94a1.39,1.39,0,0,1,1.35.49l1.37,1.7a1.41,1.41,0,0,1-.14,1.93,15.41,15.41,0,0,0-3.48,4.38c-1.32,2.79-2.95,3.35-5.73,4.19S201.65,111.5,203.8,109.34Z"></path></g><path d="M213.61,142.55s-21.82-4.37-21.13-5l15.38-22.28-5.1-4s-23.95,21.91-24.84,29.34,32.8,15,32.8,15C221,152.42,213.61,142.55,213.61,142.55Z" style="fill:#2563EB"></path><polygon points="245.27 194.84 243.17 196.27 237.73 191.33 239.4 189.5 245.27 194.84" style="fill:#263238"></polygon><path d="M236.73,189.71h3.57a1,1,0,0,1,1,1v.62a0,0,0,0,1,0,0h-5.53a0,0,0,0,1,0,0v-.62a1,1,0,0,1,1-1Z" transform="translate(-62.89 238.83) rotate(-47.72)" style="fill:#263238"></path><path d="M244.13,85.3a1.05,1.05,0,0,1-.77-.32,1.09,1.09,0,0,1,0-1.55l3.34-3.35a1.1,1.1,0,1,1,1.55,1.55L244.91,85A1.09,1.09,0,0,1,244.13,85.3Z" style="fill:#2563EB"></path><path d="M238.7,83a1.09,1.09,0,0,1-1.09-1.1V77.22a1.1,1.1,0,1,1,2.19,0v4.72A1.1,1.1,0,0,1,238.7,83Z" style="fill:#2563EB"></path><path d="M233.26,85.29a1.09,1.09,0,0,1-.77-.32l-3.34-3.34a1.1,1.1,0,0,1,1.55-1.55L234,83.42A1.09,1.09,0,0,1,234,85,1.13,1.13,0,0,1,233.26,85.29Z" style="fill:#2563EB"></path><path d="M251.11,90.73h-4.73a1.1,1.1,0,1,1,0-2.2h4.73a1.1,1.1,0,0,1,0,2.2Z" style="fill:#2563EB"></path></g><g id="Reminders"><path d="M84.1,178.75v23.64a2.23,2.23,0,0,0,2.23,2.24h35.08l8.66,6.69a1.65,1.65,0,0,0,2.64-1.33v-5.36h1.35a2.24,2.24,0,0,0,2.24-2.24V178.74a2.23,2.23,0,0,0-2.24-2.21H86.32A2.21,2.21,0,0,0,84.1,178.75Z" style="fill:#fff"></path><path d="M131.06,212.15a2.16,2.16,0,0,1-1.3-.43l-8.52-6.59H86.33a2.74,2.74,0,0,1-2.73-2.74V178.75A2.72,2.72,0,0,1,86.32,176h47.76a2.73,2.73,0,0,1,2.72,2.71v23.65a2.74,2.74,0,0,1-2.74,2.74h-.85V210A2.16,2.16,0,0,1,131.06,212.15ZM86.32,177a1.72,1.72,0,0,0-1.72,1.72v23.64a1.73,1.73,0,0,0,1.73,1.74h35.25l8.79,6.79a1.14,1.14,0,0,0,.69.23,1.16,1.16,0,0,0,1.15-1.16v-5.86h1.85a1.74,1.74,0,0,0,1.74-1.74V178.74a1.73,1.73,0,0,0-1.73-1.71H86.32Z" style="fill:#2563EB"></path><polygon points="103 199.37 91.54 199.37 92.95 194.44 101.59 194.44 103 199.37" style="fill:#fff"></polygon><path d="M103.67,199.87H90.87l1.7-5.93H102Zm-11.47-1h10.14l-1.12-3.93h-7.9Z" style="fill:#2563EB"></path><path d="M97.39,183.63a3.26,3.26,0,1,1-3.26-3.25A3.26,3.26,0,0,1,97.39,183.63Z" style="fill:#fff"></path><path d="M94.13,187.39a3.76,3.76,0,1,1,3.76-3.76A3.75,3.75,0,0,1,94.13,187.39Zm0-6.51a2.76,2.76,0,1,0,2.76,2.75A2.75,2.75,0,0,0,94.13,180.88Z" style="fill:#2563EB"></path><path d="M103.9,183.63a3.26,3.26,0,1,1-3.25-3.25A3.26,3.26,0,0,1,103.9,183.63Z" style="fill:#fff"></path><path d="M100.65,187.39a3.76,3.76,0,1,1,3.75-3.76A3.76,3.76,0,0,1,100.65,187.39Zm0-6.51a2.76,2.76,0,1,0,2.75,2.75A2.76,2.76,0,0,0,100.65,180.88Z" style="fill:#2563EB"></path><circle cx="97.27" cy="190.02" r="8.8" style="fill:#fff"></circle><path d="M97.27,199.32a9.31,9.31,0,1,1,9.3-9.3A9.31,9.31,0,0,1,97.27,199.32Zm0-17.61a8.31,8.31,0,1,0,8.3,8.31A8.31,8.31,0,0,0,97.27,181.71Z" style="fill:#2563EB"></path><polygon points="100.36 192.73 96.77 190.28 96.77 183.63 97.77 183.63 97.77 189.75 100.93 191.9 100.36 192.73" style="fill:#2563EB"></polygon><path d="M112.92,188.31h13a1.13,1.13,0,1,0,0-2.26h-13a1.13,1.13,0,0,0,0,2.26Z" style="fill:#2563EB"></path><path d="M114.72,192.79H125.9a1.13,1.13,0,0,0,0-2.26H114.72a1.13,1.13,0,0,0,0,2.26Z" style="fill:#2563EB"></path><path d="M116.52,197.26h9.38a1.13,1.13,0,0,0,0-2.26h-9.38a1.13,1.13,0,1,0,0,2.26Z" style="fill:#2563EB"></path><path d="M295.65,230V206.36a2.23,2.23,0,0,0-2.23-2.23H258.33l-8.65-6.69a1.6,1.6,0,0,0-1-.34,1.66,1.66,0,0,0-1.66,1.66v5.37h-1.35a2.23,2.23,0,0,0-2.23,2.23V230a2.23,2.23,0,0,0,2.23,2.22h47.75A2.22,2.22,0,0,0,295.65,230Z" style="fill:#fff"></path><path d="M250,197l8.51,6.59h34.92a2.73,2.73,0,0,1,2.73,2.73V230a2.72,2.72,0,0,1-2.72,2.72H245.67A2.73,2.73,0,0,1,243,230V206.36a2.73,2.73,0,0,1,2.73-2.73h.85v-4.87a2.16,2.16,0,0,1,2.16-2.16A2.19,2.19,0,0,1,250,197Zm-4.31,34.69h47.75a1.72,1.72,0,0,0,1.72-1.72V206.36a1.73,1.73,0,0,0-1.73-1.73H258.16l-8.78-6.8a1.21,1.21,0,0,0-.69-.23,1.16,1.16,0,0,0-1.16,1.16v5.87h-1.85a1.73,1.73,0,0,0-1.73,1.73V230a1.71,1.71,0,0,0,.51,1.22,1.74,1.74,0,0,0,1.21.5Z" style="fill:#2563EB"></path><path d="M264.83,216.89h-13a1.13,1.13,0,1,1,0-2.26h13a1.13,1.13,0,0,1,0,2.26Z" style="fill:#2563EB"></path><path d="M263,221.37H251.85a1.14,1.14,0,1,1,0-2.27H263a1.14,1.14,0,0,1,0,2.27Z" style="fill:#2563EB"></path><path d="M261.23,225.84h-9.38a1.13,1.13,0,1,1,0-2.26h9.38a1.13,1.13,0,0,1,0,2.26Z" style="fill:#2563EB"></path><polygon points="285.91 228.6 274.44 228.6 275.85 223.67 284.5 223.67 285.91 228.6" style="fill:#fff"></polygon><path d="M286.58,229.1h-12.8l1.7-5.93h9.4Zm-11.47-1h10.14l-1.12-3.93h-7.9Z" style="fill:#2563EB"></path><path d="M280.3,212.87a3.26,3.26,0,1,1-3.26-3.26A3.26,3.26,0,0,1,280.3,212.87Z" style="fill:#fff"></path><path d="M277,216.62a3.76,3.76,0,1,1,3.76-3.75A3.76,3.76,0,0,1,277,216.62Zm0-6.51a2.76,2.76,0,1,0,2.76,2.76A2.77,2.77,0,0,0,277,210.11Z" style="fill:#2563EB"></path><path d="M286.81,212.87a3.26,3.26,0,1,1-3.26-3.26A3.26,3.26,0,0,1,286.81,212.87Z" style="fill:#fff"></path><path d="M283.55,216.62a3.76,3.76,0,1,1,3.76-3.75A3.75,3.75,0,0,1,283.55,216.62Zm0-6.51a2.76,2.76,0,1,0,2.76,2.76A2.76,2.76,0,0,0,283.55,210.11Z" style="fill:#2563EB"></path><circle cx="280.18" cy="219.25" r="8.8" style="fill:#fff"></circle><path d="M280.18,228.55a9.3,9.3,0,1,1,9.3-9.3A9.31,9.31,0,0,1,280.18,228.55Zm0-17.6a8.3,8.3,0,1,0,8.3,8.3A8.31,8.31,0,0,0,280.18,211Z" style="fill:#2563EB"></path><polygon points="285.91 219.75 279.67 219.75 279.8 212.86 280.8 212.88 280.69 218.75 285.91 218.75 285.91 219.75" style="fill:#2563EB"></polygon><path d="M371.46,223.41v23.65a2.23,2.23,0,0,1-2.24,2.23H334.14L325.49,256a1.65,1.65,0,0,1-2.65-1.32v-5.37h-1.35a2.23,2.23,0,0,1-2.23-2.23V223.41a2.22,2.22,0,0,1,2.23-2.22h47.75A2.23,2.23,0,0,1,371.46,223.41Z" style="fill:#fff"></path><path d="M324.5,256.82a2.16,2.16,0,0,1-2.16-2.16v-4.87h-.85a2.73,2.73,0,0,1-2.73-2.73V223.41a2.74,2.74,0,0,1,.8-1.93,2.85,2.85,0,0,1,1.93-.79h47.75a2.72,2.72,0,0,1,2.72,2.72v23.65a2.74,2.74,0,0,1-2.74,2.73H334.31l-8.52,6.59A2.16,2.16,0,0,1,324.5,256.82Zm-3-35.13a1.72,1.72,0,0,0-1.72,1.72v23.65a1.72,1.72,0,0,0,1.73,1.73h1.85v5.87a1.16,1.16,0,0,0,1.16,1.16,1.12,1.12,0,0,0,.68-.23l8.79-6.8h35.25a1.73,1.73,0,0,0,1.74-1.73V223.41a1.72,1.72,0,0,0-1.72-1.72H321.48Z" style="fill:#2563EB"></path><path d="M342.64,233h-13a1.13,1.13,0,0,1,0-2.26h13a1.13,1.13,0,0,1,0,2.26Z" style="fill:#2563EB"></path><path d="M340.84,237.46H329.65a1.14,1.14,0,0,1,0-2.27h11.19a1.14,1.14,0,0,1,0,2.27Z" style="fill:#2563EB"></path><path d="M339,241.93h-9.39a1.13,1.13,0,0,1,0-2.26H339a1.13,1.13,0,0,1,0,2.26Z" style="fill:#2563EB"></path><polygon points="364.05 244.24 352.58 244.24 353.99 239.31 362.64 239.31 364.05 244.24" style="fill:#fff"></polygon><path d="M364.72,244.74h-12.8l1.7-5.93H363Zm-11.47-1h10.14l-1.12-3.93h-7.9Z" style="fill:#2563EB"></path><path d="M358.44,228.5a3.26,3.26,0,1,1-3.26-3.25A3.26,3.26,0,0,1,358.44,228.5Z" style="fill:#fff"></path><path d="M355.18,232.26a3.76,3.76,0,1,1,3.76-3.76A3.77,3.77,0,0,1,355.18,232.26Zm0-6.51a2.76,2.76,0,1,0,2.76,2.75A2.76,2.76,0,0,0,355.18,225.75Z" style="fill:#2563EB"></path><path d="M365,228.5a3.26,3.26,0,1,1-3.26-3.25A3.26,3.26,0,0,1,365,228.5Z" style="fill:#fff"></path><path d="M361.69,232.26a3.76,3.76,0,1,1,3.76-3.76A3.76,3.76,0,0,1,361.69,232.26Zm0-6.51a2.76,2.76,0,1,0,2.76,2.75A2.75,2.75,0,0,0,361.69,225.75Z" style="fill:#2563EB"></path><circle cx="358.32" cy="234.88" r="8.8" style="fill:#fff"></circle><path d="M358.32,244.18a9.3,9.3,0,1,1,9.3-9.3A9.31,9.31,0,0,1,358.32,244.18Zm0-17.6a8.3,8.3,0,1,0,8.3,8.3A8.31,8.31,0,0,0,358.32,226.58Z" style="fill:#2563EB"></path><polygon points="359.13 239.41 357.82 234.88 357.82 228.5 358.82 228.5 358.82 234.81 360.09 239.13 359.13 239.41" style="fill:#2563EB"></polygon><path d="M446.21,213.36V237a2.23,2.23,0,0,1-2.23,2.23H408.9l-8.66,6.7a1.65,1.65,0,0,1-2.64-1.33v-5.37h-1.35A2.23,2.23,0,0,1,394,237V213.35a2.24,2.24,0,0,1,2.24-2.22H444A2.22,2.22,0,0,1,446.21,213.36Z" style="fill:#fff"></path><path d="M399.25,246.76a2.16,2.16,0,0,1-2.15-2.16v-4.87h-.85a2.74,2.74,0,0,1-2.74-2.73V213.35a2.74,2.74,0,0,1,2.72-2.72H444a2.72,2.72,0,0,1,2.72,2.73V237a2.73,2.73,0,0,1-2.73,2.73H409.07l-8.52,6.59A2.17,2.17,0,0,1,399.25,246.76Zm-3-35.13a1.73,1.73,0,0,0-1.73,1.72V237a1.73,1.73,0,0,0,1.74,1.73h1.85v5.87a1.16,1.16,0,0,0,1.15,1.16,1.14,1.14,0,0,0,.69-.23l8.79-6.8H444a1.72,1.72,0,0,0,1.73-1.73V213.36a1.73,1.73,0,0,0-1.72-1.73H396.24Z" style="fill:#2563EB"></path><path d="M417.39,222.92h-13a1.13,1.13,0,0,1,0-2.26h13a1.13,1.13,0,0,1,0,2.26Z" style="fill:#2563EB"></path><path d="M415.59,227.4H404.41a1.14,1.14,0,0,1,0-2.27h11.18a1.14,1.14,0,0,1,0,2.27Z" style="fill:#2563EB"></path><path d="M413.79,231.87h-9.38a1.13,1.13,0,0,1,0-2.26h9.38a1.13,1.13,0,0,1,0,2.26Z" style="fill:#2563EB"></path><polygon points="438.11 234.63 426.64 234.63 428.05 229.7 436.7 229.7 438.11 234.63" style="fill:#fff"></polygon><path d="M438.77,235.13H426l1.69-5.93h9.41Zm-11.47-1h10.15l-1.13-3.93h-7.89Z" style="fill:#2563EB"></path><path d="M432.49,218.9a3.26,3.26,0,1,1-3.25-3.26A3.26,3.26,0,0,1,432.49,218.9Z" style="fill:#fff"></path><path d="M429.24,222.65A3.76,3.76,0,1,1,433,218.9,3.75,3.75,0,0,1,429.24,222.65Zm0-6.51A2.76,2.76,0,1,0,432,218.9,2.77,2.77,0,0,0,429.24,216.14Z" style="fill:#2563EB"></path><path d="M439,218.9a3.26,3.26,0,1,1-3.26-3.26A3.26,3.26,0,0,1,439,218.9Z" style="fill:#fff"></path><path d="M435.75,222.65a3.76,3.76,0,1,1,3.76-3.75A3.76,3.76,0,0,1,435.75,222.65Zm0-6.51a2.76,2.76,0,1,0,2.76,2.76A2.77,2.77,0,0,0,435.75,216.14Z" style="fill:#2563EB"></path><circle cx="432.37" cy="225.28" r="8.8" style="fill:#fff"></circle><path d="M432.37,234.58a9.31,9.31,0,1,1,9.31-9.3A9.31,9.31,0,0,1,432.37,234.58Zm0-17.61a8.31,8.31,0,1,0,8.31,8.31A8.32,8.32,0,0,0,432.37,217Z" style="fill:#2563EB"></path><polygon points="432.63 231.22 431.63 231.18 431.87 225.41 428.82 220.67 429.66 220.13 432.88 225.14 432.63 231.22" style="fill:#2563EB"></polygon></g></svg>